<?xml version="1.0" standalone="no"?><!DOCTYPE svg PUBLIC "-//W3C//DTD SVG 1.1//EN" "http://www.w3.org/Graphics/SVG/1.1/DTD/svg11.dtd"><svg width="790" height="400"><defs></defs><rect x="2" y="2" width="787" height="397" fill="none" style="stroke: rgb(2, 111, 193); fill-opacity: 1; stroke-opacity: 1; stroke-width: 2;"></rect><text style="font-size:12px;font-family:'Arial', sans-serif" fill="#000000" class="vennchart-title" x="260.6015625" y="16.1875">Conservation between human and mouse proteome</text><text style="font-size:12px;font-family:'Arial', sans-serif" fill="#000000" class="vennchart-subtitle" x="395" y="21"></text><g class="venn-area venn-circle venn-sets-1"><path d="
M 421.4461118778924 214.8 
m -170 0 
a 170 170 0 1 0 340 0 
a 170 170 0 1 0 -340 0" style="fill-opacity: 0.25; fill: rgb(255, 127, 14); stroke-opacity: 0; stroke: red; stroke-width: 0;"></path><text text-anchor="middle" dy=".35em" x="507" y="215" style="fill: rgb(255, 127, 14);"><tspan x="507" y="215" dy="0.35em">Human (20106)</tspan></text></g><g class="venn-area venn-circle venn-sets-0"><path d="
M 354.1997494196794 214.8 
m -155.64586129757183 0 
a 155.64586129757183 155.64586129757183 0 1 0 311.29172259514365 0 
a 155.64586129757183 155.64586129757183 0 1 0 -311.29172259514365 0" style="fill-opacity: 0.25; fill: rgb(31, 119, 180); stroke-opacity: 0; stroke: red; stroke-width: 0;"></path><text text-anchor="middle" dy=".35em" x="253" y="211" style="fill: rgb(31, 119, 180);"><tspan x="253" y="211" dy="0.35em">Mouse (16854)</tspan></text></g><g class="venn-area venn-intersection venn-sets-0_1"><path d="
M 353.0674012040394 370.441742237041 
A 170 170 0 0 1 353.0674012040394 59.15825776295904 
A 155.64586129757183 155.64586129757183 0 1 1 353.0674012040394 370.441742237041" style="fill-opacity: 0; stroke-opacity: 0; stroke: red; stroke-width: 0;"></path><text text-anchor="middle" dy=".35em" x="379" y="215" style="fill: rgb(68, 68, 68);"><tspan x="379" y="215" dy="-0.20000000000000007em">Mouse (16854) ^ Human</tspan><tspan x="379" y="215" dy="0.9em">(20106)</tspan></text></g></svg>